<?xml version="1.0" encoding="UTF-8"?>
<svg id="Layer_1" xmlns="http://www.w3.org/2000/svg" viewBox="0 0 232.78 42.44">
  <path fill="currentColor"
    d="M38.36,28.2h-.19c-1.94,0-3.61-1.35-3.61-3.61,0-.59.44-.89.89-.89s.89.3.89.89c0,1.17.78,1.85,1.83,1.85h.19c1.07,0,1.91-.61,1.91-1.68,0-2.59-5.59-2.59-5.59-5.96v-.33c0-2,1.81-3.28,3.52-3.28h.17c1.76,0,3.37.94,3.5,2.83v.11c0,.5-.35.83-.85.83s-.81-.31-.93-.81c-.19-1-.76-1.2-1.72-1.2h-.17c-.8,0-1.74.52-1.74,1.43v.37c0,1.78,5.59,2.18,5.59,6.01,0,2.07-1.61,3.44-3.68,3.44Z" />
  <path fill="currentColor"
    d="M53.36,28.2h-.18c-1.98,0-3.61-1.55-3.61-3.55v-5.92c0-2,1.63-3.54,3.63-3.54h.17c2,0,3.61,1.54,3.61,3.54v5.92c0,2-1.61,3.55-3.61,3.55ZM55.19,18.72c0-1.02-.83-1.78-1.83-1.78h-.18c-1,0-1.83.78-1.83,1.78v5.92c0,1.02.83,1.79,1.83,1.79h.18c1,0,1.83-.78,1.83-1.79v-5.92Z" />
  <path fill="currentColor"
    d="M70.96,28.09h-4.96c-.48,0-.89-.43-.89-.89v-11.12c0-.59.45-.89.89-.89s.87.3.87.89v10.25h4.09c.59,0,.89.44.89.89s-.3.87-.89.87Z" />
  <path fill="currentColor"
    d="M84.99,16.3l-2.7,11.12c-.13.52-.57.78-1.04.78s-.91-.26-1.04-.78l-2.7-11.12c-.02-.09-.02-.17-.02-.24,0-.48.39-.87.93-.87.35,0,.72.2.83.68l2,8.51,2-8.51c.11-.48.48-.68.83-.68.54,0,.93.39.93.87,0,.07,0,.15-.02.24Z" />
  <path fill="currentColor"
    d="M99.01,28.09h-5.63c-.46,0-.89-.43-.89-.89v-11.01c0-.46.43-.89.89-.89h5.63c.59,0,.89.44.89.89s-.3.87-.89.87h-4.74v3.57h3.22c.59,0,.89.43.89.87s-.3.89-.89.89h-3.22v3.94h4.74c.59,0,.89.44.89.89s-.3.87-.89.87Z" />
  <path fill="currentColor"
    d="M119.69,28.2c-.44,0-.89-.3-.89-.89v-11.24c0-.59.44-.89.89-.89s.89.3.89.89v11.24c0,.59-.45.89-.89.89Z" />
  <path fill="currentColor"
    d="M134.48,17.06h-1.76v10.25c0,.59-.44.89-.89.89s-.89-.3-.89-.89v-10.25h-1.76c-.59,0-.89-.44-.89-.87s.3-.89.89-.89h5.29c.59,0,.89.44.89.89s-.3.87-.89.87Z" />
  <path fill="currentColor"
    d="M155.53,28.2h-.19c-1.94,0-3.61-1.35-3.61-3.61,0-.59.44-.89.89-.89s.89.3.89.89c0,1.17.78,1.85,1.83,1.85h.19c1.07,0,1.91-.61,1.91-1.68,0-2.59-5.59-2.59-5.59-5.96v-.33c0-2,1.81-3.28,3.52-3.28h.17c1.76,0,3.37.94,3.5,2.83v.11c0,.5-.35.83-.85.83s-.81-.31-.93-.81c-.19-1-.76-1.2-1.72-1.2h-.17c-.8,0-1.74.52-1.74,1.43v.37c0,1.78,5.59,2.18,5.59,6.01,0,2.07-1.61,3.44-3.68,3.44Z" />
  <path fill="currentColor"
    d="M169.5,28.2c-.44,0-.89-.3-.89-.89v-11.24c0-.59.45-.89.89-.89s.89.3.89.89v11.24c0,.59-.44.89-.89.89Z" />
  <path fill="currentColor"
    d="M188.98,28.2c-.44,0-.89-.3-.89-.89v-7.85l-2,4.63c-.17.37-.55.56-.94.56s-.74-.19-.91-.56l-2.07-4.63v7.85c0,.59-.44.89-.89.89s-.89-.3-.89-.89v-11.24c0-.46.43-.89.89-.89h.22c.43,0,.76.17.91.52l2.74,6.11,2.7-6.11c.17-.39.43-.52.91-.52h.22c.46,0,.89.43.89.89v11.24c0,.59-.44.89-.89.89Z" />
  <path fill="currentColor"
    d="M202.86,22.5h-2.11v4.81c0,.59-.44.89-.89.89s-.89-.3-.89-.89v-11.12c0-.46.41-.89.89-.89h3c2,0,3.48,1.59,3.48,3.59s-1.48,3.61-3.48,3.61ZM202.86,17.06h-2.11v3.68h2.11c1.02,0,1.7-.83,1.7-1.85s-.69-1.83-1.7-1.83Z" />
  <path fill="currentColor"
    d="M219.52,28.09h-4.96c-.48,0-.89-.43-.89-.89v-11.12c0-.59.44-.89.89-.89s.87.3.87.89v10.25h4.09c.59,0,.89.44.89.89s-.3.87-.89.87Z" />
  <path fill="currentColor"
    d="M232.7,16.43l-2.79,6.72v4.16c0,.59-.44.89-.89.89s-.89-.3-.89-.89v-4.16l-2.79-6.72c-.06-.11-.07-.24-.07-.35,0-.48.37-.89.92-.89.32,0,.63.17.8.55l2.04,4.91,2.04-4.91c.17-.39.48-.55.79-.55.56,0,.93.41.93.89,0,.11-.04.24-.07.35Z" />
  <path fill="currentColor"
    d="M18.63,27.96H1.89c-.28,0-.5.22-.5.5,0,3.12,1.67,5.9,4.35,7.49.08.05.16.07.25.07h8.52c.09,0,.18-.02.25-.07,2.68-1.59,4.35-4.37,4.35-7.49,0-.28-.22-.5-.5-.5Z" />
  <path fill="currentColor"
    d="M13.87,36.88h-7.21c-.36,0-.64.29-.64.64s.29.64.64.64h7.21c.35,0,.64-.29.64-.64s-.29-.64-.64-.64Z" />
  <path fill="currentColor"
    d="M13.87,39.02h-7.21c-.36,0-.64.29-.64.64s.29.64.64.64h7.21c.35,0,.64-.29.64-.64s-.29-.64-.64-.64Z" />
  <path fill="currentColor"
    d="M12.83,41.15h-5.15c-.35,0-.64.29-.64.64s.29.64.64.64h5.15c.36,0,.64-.29.64-.64s-.29-.64-.64-.64Z" />
  <path fill="currentColor"
    d="M.87,4.05l15.98,12.57c.42.33.91.49,1.4.49.67,0,1.34-.3,1.79-.87.77-.98.6-2.41-.38-3.19l-9.83-7.73c-.08-.08-.13-.2-.13-.32,0-.26.21-.46.46-.47h3.27c.29,0,.55.1.75.27l.03.03,2.59,2.15c.96.8,2.39.67,3.2-.29.8-.96.67-2.39-.29-3.2l-3.57-2.97c-.41-.34-.92-.52-1.45-.52H2.27C1.3,0,.44.61.13,1.53c-.32.91-.02,1.93.74,2.53Z" />
  <path fill="currentColor"
    d="M19.65,22.05L3.67,9.48c-.41-.33-.91-.49-1.4-.49-.67,0-1.34.3-1.79.87-.77.99-.6,2.41.38,3.19l9.83,7.73c.08.08.13.2.13.32,0,.26-.21.46-.46.46h-3.27c-.29,0-.55-.1-.75-.27l-.03-.03-2.59-2.15c-.96-.8-2.39-.67-3.2.29-.8.96-.67,2.39.29,3.2l3.57,2.97c.41.34.92.53,1.45.53h12.41c.97,0,1.83-.61,2.14-1.53.32-.91.02-1.93-.74-2.53Z" />
</svg>